#!OML:ASF F:\VICON\USERDATA\INSTALL\Justin_Nancy\Justin_Nancy.ASF
:FULLY-SPECIFIED
:DEGREES
311
root 0.890387 20.953 -2.65149 9.04009 -8.24328 -0.867677
lowerback 6.59512 1.60468 1.56734
upperback -0.619255 2.38543 2.82806
thorax -4.40015 1.17817 1.80459
lowerneck -9.68076 -1.85572 -9.11652
upperneck 20.7169 -2.12457 5.66072
head 8.15975 -1.17237 3.21403
rclavicle 1.35174e-014 -5.56597e-015
rhumerus -7.0437 0.662288 -79.8484
rradius 54.567
rwrist -4.61548
rhand -19.532 9.01455
rfingers 7.12502
rthumb 6.79157 -20.8565
lclavicle 1.35174e-014 -5.56597e-015
lhumerus -20.9563 4.36158 89.7971
lradius 72.9968
lwrist 11.8888
lhand -24.1238 19.0596
lfingers 7.12502
lthumb 2.35781 49.0264
rfemur -6.57888 4.03884 15.2474
rtibia 61.2599
rfoot 24.5055 1.05176
rtoes 17.7858
lfemur -4.72329 4.72845 -21.1672
ltibia 54.4035
lfoot 27.2237 -12.0733
ltoes 0.126548
312
root 0.88901 21.1874 -2.37174 8.13334 -8.04004 -0.859956
lowerback 7.58432 1.55943 1.57567
upperback -0.250408 2.34197 2.75328
thorax -4.56912 1.15335 1.70507
lowerneck -9.64729 -1.89072 -8.90432
upperneck 21.3692 -2.20328 5.52442
head 8.37541 -1.2147 3.13478
rclavicle 2.00773e-014 1.27222e-014
rhumerus -6.94761 1.12167 -79.805
rradius 49.1759
rwrist -5.19463
rhand -19.2665 8.339
rfingers 7.12502
rthumb 7.04793 -21.5237
lclavicle 2.00773e-014 1.27222e-014
lhumerus -19.4178 3.72996 90.2045
lradius 66.0269
lwrist 13.6414
lhand -23.1103 18.1039
lfingers 7.12502
lthumb 3.33656 48.0575
rfemur -7.66079 2.68771 15.4264
rtibia 65.2126
rfoot 23.4399 1.19881
rtoes 19.2334
lfemur -6.04352 5.51142 -21.0743
ltibia 58.2854
lfoot 25.2026 -11.5521
ltoes -0.559759
313
root 0.876097 21.4161 -2.08617 7.40346 -7.67912 -0.816333
lowerback 8.41175 1.53645 1.47655
upperback 0.107577 2.3117 2.66191
thorax -4.66061 1.13795 1.65209
lowerneck -9.65296 -2.02982 -8.85347
upperneck 22.0472 -2.44099 5.60078
head 8.62514 -1.32303 3.13918
rclavicle -1.45113e-014 -2.06736e-014
rhumerus -7.02466 2.00487 -79.6039
rradius 44.3778
rwrist -4.54939
rhand -18.6111 6.81605
rfingers 7.12502
rthumb 7.68048 -23.0245
lclavicle -1.45113e-014 -2.06736e-014
lhumerus -17.8792 2.39146 90.5173
lradius 59.3122
lwrist 15.7053
lhand -24.967 20.4384
lfingers 7.12502
lthumb 1.54346 50.4126
rfemur -8.96718 1.12164 15.5895
rtibia 69.0311
rfoot 22.3812 1.22614
rtoes 20.0077
lfemur -7.66647 6.26023 -20.9421
ltibia 62.0846
lfoot 22.8966 -11.3868
ltoes -1.18474
314
root 0.854793 21.6367 -1.78625 6.81859 -7.18671 -0.746484
lowerback 9.0627 1.51238 1.26824
upperback 0.380736 2.2645 2.56765
thorax -4.74398 1.11694 1.66374
lowerneck -9.59025 -2.26912 -8.90753
upperneck 22.6514 -2.84641 5.8561
head 8.85641 -1.4999 3.20419
rclavicle 4.96962e-015 -1.51076e-014
rhumerus -7.51687 3.02981 -79.4324
rradius 40.3142
rwrist -2.94053
rhand -16.2908 6.68728
rfingers 7.12502
rthumb 9.91965 -23.059
lclavicle 4.96962e-015 -1.51076e-014
lhumerus -16.8207 1.06259 90.6229
lradius 52.9727
lwrist 16.4528
lhand -25.5439 22.2285
lfingers 7.12502
lthumb 0.986239 52.206
rfemur -10.3754 -0.617663 15.7231
rtibia 72.7491
rfoot 21.0519 1.17158
rtoes 20.1758
lfemur -9.53724 6.91701 -20.7884
ltibia 65.7853
lfoot 20.5557 -11.6138
ltoes -1.75351
315
root 0.833747 21.8288 -1.48819 6.45855 -6.67856 -0.55164
lowerback 9.53987 1.49408 0.838904
upperback 0.467673 2.2024 2.51801
thorax -4.93353 1.09451 1.85132
lowerneck -9.36201 -2.45663 -9.01382
upperneck 23.2132 -3.18999 6.12306
head 9.04113 -1.65184 3.28906
rclavicle -7.15625e-015 2.22639e-014
rhumerus -8.82794 3.87186 -79.2903
rradius 37.3791
rwrist -0.740203
rhand -13.1162 7.48395
rfingers 7.12502
rthumb 12.9811 -22.0922
lclavicle -7.15625e-015 2.22639e-014
lhumerus -16.4762 0.13125 90.7729
lradius 47.6711
lwrist 15.7535
lhand -25.3513 22.678
lfingers 7.12502
lthumb 1.1723 52.6545
rfemur -12.1091 -2.6163 15.6209
rtibia 76.3452
rfoot 19.7121 1.36687
rtoes 20.4383
lfemur -11.7354 7.58043 -20.8158
ltibia 69.3877
lfoot 18.5628 -11.6977
ltoes -2.33136
316
root 0.819685 21.9648 -1.22521 6.44542 -6.1125 -0.332505
lowerback 9.87962 1.43563 0.374035
upperback 0.334208 2.08718 2.55913
thorax -5.2792 1.0499 2.16393
lowerneck -8.56983 -2.45728 -9.24147
upperneck 23.5473 -3.23695 6.14715
head 9.01707 -1.70618 3.34149
rclavicle 1.98785e-014 2.14687e-014
rhumerus -10.839 3.7699 -79.2633
rradius 35.5442
rwrist 2.10277
rhand -10.456 7.88396
rfingers 7.12502
rthumb 15.5445 -21.5113
lclavicle 1.98785e-014 2.14687e-014
lhumerus -16.7388 0.0317743 91.026
lradius 43.574
lwrist 13.166
lhand -24.8425 21.6222
lfingers 7.12502
lthumb 1.66371 51.5955
rfemur -14.6003 -4.80864 15.4629
rtibia 79.9349
rfoot 18.7737 1.80382
rtoes 21.5369
lfemur -13.8144 8.11182 -20.9225
ltibia 72.8334
lfoot 16.4505 -11.3404
ltoes -3.34807
317
root 0.810196 22.1302 -0.93787 6.53503 -5.53665 -0.53871
lowerback 10.3781 1.3068 0.442032
upperback 0.228804 1.94599 2.72721
thorax -5.66905 0.981656 2.31298
lowerneck -7.988 -2.32095 -9.43122
upperneck 23.8517 -2.98265 5.76129
head 8.99236 -1.65362 3.27467
rclavicle -2.28602e-014 -2.62396e-014
rhumerus -13.0955 2.849 -79.2761
rradius 34.5461
rwrist 4.58143
rhand -9.34705 8.2163
rfingers 7.12502
rthumb 16.6123 -21.0927
lclavicle -2.28602e-014 -2.62396e-014
lhumerus -17.0779 0.560659 91.2304
lradius 40.1429
lwrist 9.54512
lhand -24.7864 21.9152
lfingers 7.12502
lthumb 1.71786 51.888
rfemur -17.0321 -6.84465 15.9244
rtibia 83.0401
rfoot 18.248 1.65107
rtoes 22.9723
lfemur -16.454 8.71316 -20.6728
ltibia 75.9455
lfoot 15.1536 -10.5861
ltoes -4.75799
318
root 0.797902 22.3317 -0.616758 6.5011 -5.02246 -0.71562
lowerback 10.9606 1.17272 0.570046
upperback 0.494492 1.79285 2.82506
thorax -5.70973 0.902322 2.3595
lowerneck -8.81617 -2.38382 -9.39321
upperneck 24.4294 -2.87476 5.19889
head 9.33783 -1.65264 3.08914
rclavicle 1.19271e-014 -1.59028e-015
rhumerus -15.0601 1.04421 -79.3154
rradius 34.3072
rwrist 5.84719
rhand -9.98368 8.3068
rfingers 7.12502
rthumb 15.9994 -21.0525
lclavicle 1.19271e-014 -1.59028e-015
lhumerus -17.1918 1.86882 91.2378
lradius 37.6398
lwrist 5.4533
lhand -23.8301 22.5025
lfingers 7.12502
lthumb 2.6414 52.4659
rfemur -18.9654 -8.72145 16.465
rtibia 85.3983
rfoot 17.8161 1.12041
rtoes 22.5951
lfemur -19.1433 9.42702 -20.5546
ltibia 78.4029
lfoot 14.008 -9.93208
ltoes -5.47055
319
root 0.787024 22.4188 -0.350137 6.59348 -4.55751 -0.934935
lowerback 11.2666 1.05875 0.860951
upperback 0.903964 1.67098 2.81775
thorax -5.4363 0.832386 2.20388
lowerneck -9.69151 -2.50092 -9.26543
upperneck 24.4661 -2.91652 4.95557
head 9.51689 -1.67464 2.97332
rclavicle -1.39149e-015 -4.77083e-015
rhumerus -16.6128 -1.47698 -79.349
rradius 34.2491
rwrist 5.88672
rhand -12.3294 8.40628
rfingers 7.12502
rthumb 13.7396 -21.1201
lclavicle -1.39149e-015 -4.77083e-015
lhumerus -17.4842 3.54779 90.9622
lradius 36.0977
lwrist 2.28437
lhand -23.0785 21.4924
lfingers 7.12502
lthumb 3.36728 51.4455
rfemur -21.444 -10.3859 17.1515
rtibia 87.9555
rfoot 17.2605 0.525151
rtoes 22.4199
lfemur -20.8652 9.7642 -20.2321
ltibia 80.903
lfoot 11.6708 -8.92677
ltoes -3.14906
320
root 0.778196 22.5647 -0.0450792 6.81071 -4.19815 -1.21157
lowerback 11.5245 0.939633 1.13225
upperback 1.13283 1.54818 2.85417
thorax -5.32907 0.765028 2.10599
lowerneck -9.62691 -2.31315 -9.23059
upperneck 23.988 -2.6533 4.95703
head 9.31359 -1.54212 2.99
rclavicle 1.31198e-014 2.38542e-015
rhumerus -18.1021 -4.20428 -79.2339
rradius 33.9139
rwrist 4.69882
rhand -16.2726 9.87578
rfingers 7.12502
rthumb 9.93718 -19.8697
lclavicle 1.31198e-014 2.38542e-015
lhumerus -18.4976 5.56557 90.5275
lradius 35.3785
lwrist 1.61892
lhand -23.2793 21.6611
lfingers 7.12502
lthumb 3.17335 51.6173
rfemur -23.3718 -11.7291 17.9052
rtibia 89.6386
rfoot 16.3792 0.308821
rtoes 22.8855
lfemur -24.3969 10.6196 -20.2932
ltibia 82.7412
lfoot 11.3644 -8.63044
ltoes -5.04146
321
root 0.773901 22.639 0.217736 7.09961 -3.98332 -1.50307
lowerback 11.879 0.800784 1.32696
upperback 1.20691 1.40458 2.98645
thorax -5.44327 0.69084 2.15525
lowerneck -9.75753 -1.98019 -9.31188
upperneck 24.1994 -2.12417 4.80642
head 9.37035 -1.32052 3.01274
rclavicle 4.37326e-015 -1.03368e-014
rhumerus -19.785 -6.86569 -78.8224
rradius 33.3919
rwrist 2.30383
rhand -16.5671 8.30935
rfingers 7.12502
rthumb 9.65303 -21.4495
lclavicle 4.37326e-015 -1.03368e-014
lhumerus -20.126 7.69976 90.0122
lradius 35.288
lwrist 3.3417
lhand -24.0426 22.1609
lfingers 7.12502
lthumb 2.43618 52.1268
rfemur -25.7075 -12.691 18.7207
rtibia 91.4247
rfoot 15.0867 0.361625
rtoes 23.415
lfemur -27.12 11.1914 -20.2395
ltibia 84.4044
lfoot 10.6092 -8.16312
ltoes -4.62311
322
root 0.766118 22.7125 0.48531 7.29419 -3.91601 -1.75501
lowerback 12.472 0.707716 1.4386
upperback 1.33173 1.31693 3.09468
thorax -5.63954 0.64534 2.2168
lowerneck -10.4722 -1.65639 -9.31438
upperneck 24.9667 -1.52787 4.48196
head 9.73064 -1.08525 2.97912
rclavicle 7.15625e-015 1.35174e-014
rhumerus -21.797 -9.85144 -78.1286
rradius 33.3451
rwrist -0.189017
rhand -18.0329 8.14525
rfingers 7.12502
rthumb 8.23858 -21.6741
lclavicle 7.15625e-015 1.35174e-014
lhumerus -22.0179 9.66833 89.3005
lradius 35.6886
lwrist 6.40201
lhand -25.0715 21.8948
lfingers 7.12502
lthumb 1.44247 51.8697
rfemur -28.0792 -13.3983 19.5942
rtibia 92.792
rfoot 14.2508 0.563995
rtoes 23.8336
lfemur -29.6655 11.8139 -20.2461
ltibia 85.5698
lfoot 10.0898 -8.20681
ltoes -4.51959
323
root 0.756308 22.779 0.759086 7.29806 -3.96743 -1.7783
lowerback 13.1977 0.630511 1.2859
upperback 1.65027 1.20606 3.11981
thorax -5.70626 0.593022 2.34504
lowerneck -10.7407 -1.49694 -9.49019
upperneck 24.7556 -1.21555 4.40002
head 9.68462 -0.959326 3.0117
rclavicle -9.54166e-015 -3.65764e-014
rhumerus -24.0101 -12.6517 -77.2492
rradius 33.8408
rwrist -2.58163
rhand -20.5072 8.29692
rfingers 7.12502
rthumb 5.85012 -21.6023
lclavicle -9.54166e-015 -3.65764e-014
lhumerus -23.7918 11.7759 88.447
lradius 36.4414
lwrist 10.1364
lhand -26.2727 23.1913
lfingers 7.12502
lthumb 0.282388 53.1708
rfemur -30.2589 -13.9109 20.2282
rtibia 93.7967
rfoot 13.626 0.727979
rtoes 22.807
lfemur -31.7287 12.3719 -20.5326
ltibia 86.1933
lfoot 9.40249 -8.82261
ltoes -6.18183
324
root 0.752842 22.8088 1.02113 7.13231 -4.16986 -1.82673
lowerback 14.1033 0.591781 1.13618
upperback 1.98679 1.15041 3.16389
thorax -5.8527 0.567417 2.48319
lowerneck -10.4794 -1.46278 -10.0164
upperneck 24.0148 -1.18878 4.84749
head 9.37545 -0.933757 3.24621
rclavicle -3.97569e-016 8.74653e-015
rhumerus -26.0265 -15.2456 -76.1204
rradius 33.7731
rwrist -4.36556
rhand -22.4906 10.1465
rfingers 7.12502
rthumb 3.93501 -19.7969
lclavicle -3.97569e-016 8.74653e-015
lhumerus -25.6507 14.0349 87.5071
lradius 37.3894
lwrist 13.2573
lhand -27.1214 24.6037
lfingers 7.12502
lthumb -0.537354 54.5828
rfemur -32.1484 -14.0536 20.7752
rtibia 94.4779
rfoot 12.9206 1.00038
rtoes 20.4778
lfemur -33.3023 12.7756 -20.7665
ltibia 86.3526
lfoot 8.66181 -9.29992
ltoes -7.07392
325
root 0.750304 22.8144 1.27877 6.96068 -4.4351 -2.0593
lowerback 15.0293 0.593403 1.13372
upperback 2.23863 1.17549 3.24758
thorax -6.09815 0.578716 2.56618
lowerneck -10.2286 -1.34377 -10.245
upperneck 23.6365 -1.04035 5.01759
head 9.18453 -0.861489 3.35203
rclavicle -1.15295e-014 1.19271e-014
rhumerus -27.9335 -18.3488 -74.583
rradius 32.8961
rwrist -5.15207
rhand -22.5165 12.2795
rfingers 7.12502
rthumb 3.91006 -17.6644
lclavicle -1.15295e-014 1.19271e-014
lhumerus -27.9599 16.0127 86.3799
lradius 38.793
lwrist 16.0946
lhand -27.3253 26.2582
lfingers 7.12502
lthumb -0.734317 56.2367
rfemur -34.0573 -13.8975 21.586
rtibia 94.7984
rfoot 12.7182 1.18949
rtoes 19.2578
lfemur -34.7797 12.9584 -20.6905
ltibia 86.0934
lfoot 7.83416 -9.67174
ltoes -6.49736
